<svg width="23" height="23" viewBox="0 0 23 23" fill="none" xmlns="http://www.w3.org/2000/svg">
<path fill-rule="evenodd" clip-rule="evenodd" d="M0.631836 1.84093C0.631836 1.35346 0.825482 0.885962 1.17017 0.54127C1.51487 0.196578 1.98237 0.00293214 2.46984 0.00293214H20.7918C21.0334 0.00253759 21.2727 0.049795 21.496 0.141999C21.7193 0.234203 21.9222 0.369542 22.0931 0.540268C22.264 0.710995 22.3996 0.913756 22.492 1.13694C22.5845 1.36013 22.632 1.59936 22.6318 1.84093V20.1629C22.6321 20.4046 22.5847 20.6439 22.4924 20.8671C22.4001 21.0904 22.2647 21.2933 22.0939 21.4642C21.923 21.6351 21.7202 21.7707 21.497 21.8631C21.2737 21.9556 21.0345 22.0031 20.7928 22.0029H2.46984C2.22838 22.0029 1.98929 21.9554 1.76623 21.8629C1.54317 21.7705 1.34051 21.635 1.16982 21.4642C0.999133 21.2935 0.863768 21.0907 0.771459 20.8676C0.679149 20.6445 0.631705 20.4054 0.631836 20.1639V1.84093ZM9.33984 8.39093H12.3188V9.88693C12.7488 9.02693 13.8488 8.25293 15.5018 8.25293C18.6708 8.25293 19.4218 9.96593 19.4218 13.1089V18.9309H16.2148V13.8249C16.2148 12.0349 15.7848 11.0249 14.6928 11.0249C13.1778 11.0249 12.5478 12.1139 12.5478 13.8249V18.9309H9.33984V8.39093ZM3.83984 18.7939H7.04784V8.25293H3.83984V18.7929V18.7939ZM7.50684 4.81493C7.51289 5.0896 7.46401 5.36272 7.36308 5.61825C7.26214 5.87377 7.11119 6.10657 6.91907 6.30296C6.72695 6.49936 6.49753 6.65541 6.24429 6.76194C5.99105 6.86847 5.71908 6.92335 5.44434 6.92335C5.1696 6.92335 4.89762 6.86847 4.64438 6.76194C4.39114 6.65541 4.16172 6.49936 3.9696 6.30296C3.77749 6.10657 3.62653 5.87377 3.5256 5.61825C3.42466 5.36272 3.37579 5.0896 3.38184 4.81493C3.39371 4.27579 3.61622 3.76272 4.00172 3.38562C4.38722 3.00851 4.90506 2.79735 5.44434 2.79735C5.98361 2.79735 6.50145 3.00851 6.88695 3.38562C7.27245 3.76272 7.49496 4.27579 7.50684 4.81493Z" fill="black"/>
</svg>
