<svg width="250" height="250" viewBox="0 0 250 250" fill="none" xmlns="http://www.w3.org/2000/svg">
<circle cx="125" cy="125" r="125" fill="white"/>
<path fill-rule="evenodd" clip-rule="evenodd" d="M130.772 45.8946C110.201 45.823 93.3764 62.4403 93.1929 83.0104L93.0278 101.521L68.2087 70.9053C62.8942 64.3496 53.1977 63.2508 46.5511 68.4513L42.2872 71.7874C35.6406 76.9878 34.5606 86.5181 39.8752 93.0739L92.5239 158.019L92.025 213.958L129.272 214.088L129.737 161.921L181.63 162.86C196.125 163.123 208.159 151.586 208.507 137.092C208.855 122.598 197.386 110.635 182.891 110.373L130.205 109.42L130.772 45.8946ZM179.222 46.8711C193.28 47.3114 204.248 59.0626 203.718 73.1182L203.444 80.3826L143 78.4896L144.233 45.7752L179.222 46.8711Z" fill="url(#paint0_linear_3_407)"/>
<defs>
<linearGradient id="paint0_linear_3_407" x1="112.652" y1="48.2248" x2="138.052" y2="212.732" gradientUnits="userSpaceOnUse">
<stop stop-color="#7336E6"/>
<stop offset="1" stop-color="#424242"/>
</linearGradient>
</defs>
</svg>
