<svg width="24" height="20" viewBox="0 0 24 20" fill="none" xmlns="http://www.w3.org/2000/svg">
<path d="M23.6796 3.18464C22.8446 3.55464 21.9476 3.80464 21.0046 3.91764C21.9776 3.33543 22.7056 2.4191 23.0526 1.33964C22.1385 1.88263 21.138 2.26483 20.0946 2.46964C19.393 1.7205 18.4637 1.22396 17.451 1.05711C16.4382 0.890257 15.3987 1.06243 14.4939 1.54689C13.589 2.03135 12.8694 2.801 12.4468 3.73634C12.0242 4.67168 11.9222 5.72039 12.1566 6.71964C10.3043 6.62663 8.49226 6.14518 6.83806 5.30654C5.18385 4.4679 3.72447 3.2908 2.55463 1.85164C2.15463 2.54164 1.92463 3.34164 1.92463 4.19364C1.92419 4.96063 2.11307 5.71588 2.47451 6.39237C2.83596 7.06886 3.35879 7.64567 3.99663 8.07164C3.25691 8.0481 2.53351 7.84822 1.88663 7.48864V7.54864C1.88656 8.62438 2.25867 9.66701 2.93982 10.4996C3.62097 11.3323 4.5692 11.9036 5.62363 12.1166C4.93742 12.3024 4.21797 12.3297 3.51963 12.1966C3.81713 13.1222 4.39663 13.9317 5.177 14.5116C5.95737 15.0915 6.89955 15.4128 7.87163 15.4306C6.22147 16.726 4.18352 17.4287 2.08563 17.4256C1.71401 17.4257 1.34271 17.404 0.973633 17.3606C3.10311 18.7298 5.58197 19.4565 8.11363 19.4536C16.6836 19.4536 21.3686 12.3556 21.3686 6.19964C21.3686 5.99964 21.3636 5.79764 21.3546 5.59764C22.2659 4.93861 23.0525 4.12253 23.6776 3.18764L23.6796 3.18464V3.18464Z" fill="black"/>
</svg>
